<?xml version="1.0" standalone="no"?>
<!DOCTYPE svg PUBLIC "-//W3C//DTD SVG 1.1//EN" "http://www.w3.org/Graphics/SVG/1.1/DTD/svg11.dtd" >
<svg xmlns="http://www.w3.org/2000/svg">
<metadata>
Created by FontForge 20120731 at Thu Feb  9 13:54:33 2017
 By admin
</metadata>
<defs>
<font id="iconfont" horiz-adv-x="1024" >
  <font-face 
    font-family="iconfont"
    font-weight="500"
    font-stretch="normal"
    units-per-em="1024"
    panose-1="2 0 6 3 0 0 0 0 0 0"
    ascent="896"
    descent="-128"
    x-height="792"
    bbox="0 -212 1024 896"
    underline-thickness="0"
    underline-position="0"
    unicode-range="U+0078-E825"
  />
<missing-glyph 
 />
    <glyph glyph-name=".notdef" 
 />
    <glyph glyph-name=".notdef" 
 />
    <glyph glyph-name=".null" horiz-adv-x="0" 
 />
    <glyph glyph-name="nonmarkingreturn" horiz-adv-x="341" 
 />
    <glyph glyph-name="x" unicode="x" horiz-adv-x="1001" 
d="M281 543q-27 -1 -53 -1h-83q-18 0 -36.5 -6t-32.5 -18.5t-23 -32t-9 -45.5v-76h912v41q0 16 -0.5 30t-0.5 18q0 13 -5 29t-17 29.5t-31.5 22.5t-49.5 9h-133v-97h-438v97zM955 310v-52q0 -23 0.5 -52t0.5 -58t-10.5 -47.5t-26 -30t-33 -16t-31.5 -4.5q-14 -1 -29.5 -0.5
t-29.5 0.5h-32l-45 128h-439l-44 -128h-29h-34q-20 0 -45 1q-25 0 -41 9.5t-25.5 23t-13.5 29.5t-4 30v167h911zM163 247q-12 0 -21 -8.5t-9 -21.5t9 -21.5t21 -8.5q13 0 22 8.5t9 21.5t-9 21.5t-22 8.5zM316 123q-8 -26 -14 -48q-5 -19 -10.5 -37t-7.5 -25t-3 -15t1 -14.5
t9.5 -10.5t21.5 -4h37h67h81h80h64h36q23 0 34 12t2 38q-5 13 -9.5 30.5t-9.5 34.5q-5 19 -11 39h-368zM336 498v228q0 11 2.5 23t10 21.5t20.5 15.5t34 6h188q31 0 51.5 -14.5t20.5 -52.5v-227h-327z" />
    <glyph glyph-name="guanli" unicode="&#xe65b;" 
d="M932 465.5q-11 11.5 -19.5 12.5t-16 -4.5t-24.5 -23.5l-10 10l-406 -408l-46 -110l105 43l412 410l-10 10q18 17 23 24.5t4 16t-12 20zM502 10l-3 -1l-22 22l1 3l384 386l24 -25zM195 576h559v-168h28v197h-616v-618h245v29h-216v560zM350 445h304v-37h-304v37zM286 446
h37v-37h-37v37zM350 332h304v-37h-304v37zM286 333h37v-37h-37v37zM350 214h191v-36h-191v36zM286 216h37v-37h-37v37zM754 16h-146v-29h174v164h-28v-135z" />
    <glyph glyph-name="iconfontcolor11" unicode="&#xe78d;" 
d="M939.5 727.5q-84.5 84.5 -204 84.5t-203.5 -85q-62 -62 -79 -148t15 -163q-3 -2 -5 -4l-440 -440q-9 -9 -16 -25t-7 -30v-97q0 -13 9.5 -22.5t22.5 -9.5l98 1q13 0 22.5 9t9.5 23v93q0 13 9 22.5t23 9.5h93q13 0 22.5 9.5t9.5 22.5v94q0 13 9.5 22.5t22.5 9.5h94
q13 0 29 6.5t26 16.5l124 124q2 2 4 5q77 -32 163 -15t148 79q85 84 85 203.5t-84.5 204zM905.5 535q-32.5 -33 -79 -33t-79.5 33t-33 79.5t33 79t79.5 32.5t79 -32.5t32.5 -79t-32.5 -79.5z" />
    <glyph glyph-name="next" unicode="&#xe60d;" 
d="M672 384l-384 -384q-10 -10 -10 -22.5t10 -22t22.5 -9.5t22.5 9l403 403q13 13 13 26q0 19 -7 26l-409 403q-10 9 -22.5 9t-22.5 -9.5t-10 -22t10 -22.5z" />
    <glyph glyph-name="pre" unicode="&#xe60f;" 
d="M352 384l384 384q10 10 10 22.5t-10 22t-22.5 9.5t-22.5 -9l-403 -403q-13 -13 -13 -26q0 -19 7 -26l409 -409q10 -10 22.5 -10t22.5 9.5t10 22.5t-10 23z" />
    <glyph glyph-name="chacha" unicode="&#xe60e;" 
d="M965 711l-42 42l-411 -411l-411 411l-42 -42l411 -411l-411 -411l42 -42l411 411l411 -411l42 42l-411 411z" />
    <glyph glyph-name="laji" unicode="&#xe612;" 
d="M479 606q0 15 10.5 26t25.5 11v0q15 0 26 -11t11 -26v-553q0 -15 -11 -25.5t-26 -10.5v0q-15 0 -25.5 10.5t-10.5 25.5v553v0zM307 606q0 15 10.5 26t25.5 11v0q15 0 26 -11t11 -26v-553q0 -15 -11 -25.5t-26 -10.5v0q-15 0 -25.5 10.5t-10.5 25.5v553v0zM650 606
q0 15 11 26t26 11v0q15 0 25.5 -11t10.5 -26v-553q0 -15 -10.5 -25.5t-25.5 -10.5v0q-15 0 -26 10.5t-11 25.5v553v0zM953 785h-144h-52v46q0 27 -21.5 45.5t-51.5 18.5h-338q-30 0 -51 -18.5t-21 -45.5v-45h-53h-149q-15 0 -26 -11t-11 -26t11 -25.5t26 -10.5h77v-769
q0 -30 21 -50.5t51 -20.5h588q30 0 51.5 20.5t21.5 50.5v768h71q15 0 25.5 11t10.5 26t-10.5 25.5t-25.5 10.5v0zM346 822h338v-37h-338v37v0zM771 -55q-472 -2 -512 -2q-18 0 -27.5 10.5t-9.5 20.5l-1 11v692q0 19 9 27.5t18 8.5l9 -1h89h338h82h5t10.5 -1.5t13 -4.5
t10 -10.5t4.5 -18.5q0 -19 0.5 -349t0.5 -347q0 -32 -37 -36h-2v0z" />
    <glyph glyph-name="tongjifenxi" unicode="&#xe62d;" 
d="M576 803q-14 0 -23 -9.5t-9 -23t9 -22.5t23 -9q169 0 276.5 -111t107.5 -281q0 -112 -55 -206.5t-149.5 -149.5t-206.5 -55q-170 0 -281 110t-111 280q0 13 -9 22.5t-22.5 9.5t-23 -9.5t-9.5 -22.5q0 -129 59 -233t163.5 -162.5t233.5 -58.5q97 0 185 37.5t151.5 101
t101 151.5t37.5 185q0 129 -57 233t-160 163.5t-231 59.5zM480 448v416q0 13 -9 22.5t-23 9.5q-92 0 -175 -35.5t-142.5 -95t-95 -142.5t-35.5 -175q0 -13 9.5 -22.5t22.5 -9.5h416q13 0 22.5 9t9.5 23zM416 480h-351q12 141 111 240t240 111v-351z" />
    <glyph glyph-name="zhifufangshi" unicode="&#xe64c;" 
d="M511 833q-91 0 -174.5 -35.5t-143.5 -95.5t-95.5 -143t-35.5 -174t35.5 -174t95.5 -143t143.5 -95.5t174.5 -35.5t174 35.5t143 95.5t96 143t36 174t-36 174t-96 143t-143 95.5t-174 35.5v0v0v0v0v0zM511 -15q-109 0 -201.5 53.5t-146 145.5t-53.5 200.5t53.5 201
t146 146t201 53.5t201 -53.5t146 -146t53.5 -201t-53.5 -200.5t-146 -145.5t-200.5 -53.5v0v0v0v0v0zM619 619l-71 -131q-28 -53 -35 -71h-1q-19 43 -106 202h-67l124 -214h-102v-47h120v-65h-120v-48h120v-95h59v95h116v48h-116v65h116v47h-99l126 214h-64v0v0v0v0v0z
M619 619z" />
    <glyph glyph-name="caozuorizhi01" unicode="&#xe606;" 
d="M291 487.5q0 -7.5 5.5 -13t13.5 -5.5h400q8 0 13 5.5t5 13t-5 13t-13 5.5h-400q-8 0 -13.5 -5.5t-5.5 -13zM710 366h-400q-8 0 -13.5 -5t-5.5 -13t5.5 -13t13.5 -5h400q8 0 13 5t5 13t-5 13t-13 5zM710 226h-400q-8 0 -13.5 -5t-5.5 -12.5t5.5 -13t13.5 -5.5h400
q8 0 13 5.5t5 13t-5 12.5t-13 5zM838 767h-164v36q0 8 -5.5 13.5t-12.5 5.5h-292q-7 0 -12.5 -5.5t-5.5 -13.5v-36h-164q-7 0 -12.5 -5.5t-5.5 -12.5v-784q0 -7 5.5 -12.5t12.5 -5.5h656q7 0 12.5 5.5t5.5 12.5v784q0 7 -5.5 12.5t-12.5 5.5zM383 785h254v-73h-254v73z
M819 -16h-619v746h146v-36q0 -8 5.5 -13t12.5 -5h292q7 0 12.5 5t5.5 13v36h145v-746z" />
    <glyph glyph-name="jiantou-copy-copy" unicode="&#xe60b;" 
d="M512 798q-113 0 -208.5 -55.5t-150.5 -151t-55 -207.5t55.5 -207.5t151 -151t207.5 -55.5t207.5 55.5t151 151t55.5 207.5t-55 207.5t-150.5 151t-208.5 55.5zM658 361l-206 -206q-9 -9 -22.5 -9t-22.5 9t-9 22t9 23l184 184l-183 182q-9 9 -9 22t9 22q10 9 23 9t21 -9
l206 -204q9 -9 9 -23q0 -13 -9 -22z" />
    <glyph glyph-name="jianhao" unicode="&#xe631;" 
d="M811 341h-598v86h598v-86z" />
    <glyph glyph-name="jiantou-copy-copy-copy" unicode="&#xe60c;" 
d="M512 -30q113 0 208.5 55.5t150.5 151t55 207.5t-55.5 207.5t-151 151t-207.5 55.5t-207.5 -55.5t-151 -151t-55.5 -207.5t55 -207.5t150.5 -151t208.5 -55.5zM366 407l206 206q9 9 22.5 9t22.5 -9t9 -22t-9 -23l-184 -184l183 -182q9 -9 9 -22t-9 -22q-10 -9 -23 -9
t-21 9l-206 204q-9 9 -9 23q0 13 9 22z" />
    <glyph glyph-name="mendianguanli" unicode="&#xe616;" 
d="M892 253q-9 0 -15.5 -6.5t-6.5 -15.5v-224q0 -10 -7 -16.5t-16 -6.5h-672q-9 0 -15.5 6.5t-6.5 16.5v224q0 9 -6.5 15.5t-16 6.5t-16 -6.5t-6.5 -15.5v-224q0 -28 19.5 -47.5t47.5 -19.5h672q28 0 47.5 19.5t19.5 47.5v224q0 9 -6.5 15.5t-15.5 6.5v0zM959 591
q-1 14 -7 27v0q-106 181 -107 183q-6 11 -11.5 17.5t-19 11.5t-35.5 5h-536q-26 0 -41.5 -9.5t-27.5 -29.5l-102 -175v0v-1q-8 -14 -9 -30v0v-157q0 -56 38 -95.5t91 -39.5q32 0 60 15.5t46 43.5q18 -28 46.5 -43.5t60.5 -15.5t60 15.5t46 43.5q18 -28 46.5 -43.5
t60.5 -15.5t60 15.5t46 43.5q18 -28 46 -43.5t60 -15.5q54 0 91.5 39.5t37.5 95.5v157v1v0zM215 772q10 16 28 16h536q11 0 16.5 -2.5t12.5 -13.5q7 -12 22.5 -37.5t30 -50t16.5 -27.5h-732q56 94 70 115v0zM914 433q0 -36 -24.5 -62t-59 -26t-59.5 26t-25 62v22
q0 10 -6.5 17t-15.5 7t-15.5 -7t-6.5 -17v-22q0 -36 -25 -62t-59.5 -26t-59 26t-24.5 62v22q0 10 -7 17t-16 7t-15.5 -7t-6.5 -17v-22q0 -36 -24.5 -62t-59.5 -26t-59.5 26t-24.5 62v22q0 10 -6.5 17t-16 7t-16 -7t-6.5 -17v-22q0 -36 -24.5 -62t-59.5 -26t-59.5 26
t-24.5 62v156q0 9 6.5 15t14.5 6h764q9 0 15 -6t6 -15v-156v0z" />
    <glyph glyph-name="iconuser" unicode="&#xe6a3;" 
d="M499 358q107 0 182.5 74.5t75.5 179t-75.5 178.5t-182.5 74t-182.5 -74t-75.5 -178.5t75.5 -179t182.5 -74.5v0zM400 312q-136 0 -225 -83t-89 -214v-19q0 -22 10 -38.5t35.5 -26.5t48 -15.5t68.5 -8t75 -3t89 -0.5v0h193q58 0 86.5 0.5t74.5 3t69 8t49 15.5t36.5 26.5
t10.5 38.5v19q0 131 -89 214t-225 83h-217z" />
    <glyph glyph-name="iconfontdingdanguanli" unicode="&#xe633;" 
d="M859 896h-628q-34 0 -58.5 -24t-24.5 -59v-16h-16q-20 0 -35 -14.5t-15 -35t15 -35t35 -14.5h16v-264h-16q-20 0 -35 -14.5t-15 -35t15 -35t35 -14.5h16v-264h-16q-20 -1 -35 -15.5t-15 -35t15 -35t35 -14.5h16v-16q0 -34 24.5 -58.5t58.5 -24.5h628q34 0 58 24.5
t24 58.5v858q0 35 -24 59t-58 24v0v0zM115 748q0 6 5 11t12 5h66q7 0 12 -5t5 -11.5t-5 -11.5t-12 -5h-66q-7 0 -12 5t-5 12v0zM115 384q0 7 5 12t12 5h66q7 0 12 -5t5 -12t-5 -11.5t-12 -4.5h-66q-7 0 -12 4.5t-5 11.5v0zM115 21q0 7 5 11.5t12 4.5h66q7 0 12 -4.5t5 -11.5
t-5 -12t-12 -5h-66q-7 0 -12 5t-5 12v0zM908 -45q0 -21 -14.5 -35.5t-35.5 -14.5h-627q-20 0 -34.5 14.5t-14.5 35.5v16h16q21 0 35.5 14.5t14.5 35t-14.5 35t-35.5 14.5h-16v265h16q21 0 35.5 14.5t14.5 35t-14.5 34.5t-35.5 14h-16v265h16q21 0 35.5 14.5t14.5 35
t-14.5 35t-35.5 14.5h-16v16q0 21 14.5 35.5t34.5 14.5h628q20 0 34.5 -14.5t14.5 -35.5v-858v0v0zM347 -12h462v231h-462v-231v0zM380 186h396v-165h-396v165v0zM561 318h33v-33h-33v33zM627 318h33v-33h-33v33zM495 318h33v-33h-33v33zM771 719l-23 24l-253 -253l-87 87
l-23 -23l110 -111z" />
    <glyph glyph-name="zhanghao" unicode="&#xe825;" 
d="M1023 395q0 79 -29 163q-34 93 -99 166q-87 97 -210 142q-56 20 -120 27q-27 2 -41 2q-1 0 -4 0.5t-4 0.5h-7q-1 0 -3.5 -0.5t-3.5 -0.5q-85 -2 -163 -30q-93 -34 -166 -99q-97 -85 -143 -208q-20 -56 -27 -120q-2 -28 -2 -43q0 -6 -1 -8v-7q0 -1 0.5 -3.5t0.5 -3.5
q2 -85 30 -162q33 -90 92 -159q90 -104 215 -149q60 -21 120 -28q29 -2 42 -2q1 0 4 -0.5t4 -0.5h7q1 0 3 0.5t3 0.5q86 2 163 30q94 34 166 99q97 86 143 209q21 59 28 119q2 28 2 43q0 6 1 8v7q0 1 -0.5 3.5t-0.5 3.5zM506.5 -85q-95.5 1 -182 39.5t-148.5 102t-98 150.5
t-35 182.5t39 182t101.5 148.5t151 98t183.5 35t182.5 -39.5t148.5 -102t98 -150.5t35 -182q-2 -96 -40 -182.5t-101.5 -148.5t-151 -98t-183 -35zM718 282q-44 47 -103 71q71 47 83 128q12 77 -36 138q-73 90 -188 69q-71 -13 -114 -73q-50 -66 -31 -149q16 -73 81 -114
q-62 -24 -105 -73q-68 -76 -69 -179q0 -11 6.5 -18.5t17.5 -7.5t18.5 7.5t7.5 17.5q0 8 2 24v3q9 73 59 124q86 88 207 68q94 -17 148 -97q35 -51 37 -121q0 -11 7 -18t19 -7q10 0 17 7t7 18q0 37 -10 72q-16 62 -61 110zM615 421q-32 -40 -85 -47q-55 -6 -99 25.5t-54 82.5
q-15 82 51 134q33 27 83 28q45 0 81.5 -26t49.5 -68q22 -71 -27 -129z" />
    <glyph glyph-name="jiahao" unicode="&#xe603;" 
d="M764 431h-206v206q0 13 -9 22t-21.5 9t-21.5 -9t-9 -22v-206h-206q-13 0 -22 -9t-9 -21.5t9 -21.5t22 -9h206v-206q0 -12 9 -21t21.5 -9t21.5 9t9 21v206h206q13 0 22 9t9 21.5t-9 21.5t-22 9z" />
    <glyph glyph-name="jiamengguanli" unicode="&#xe650;" 
d="M619 830q-105 0 -179 -74t-74 -179q0 -71 36.5 -131t97.5 -92q-126 -39 -206.5 -146t-80.5 -242q0 -10 7 -17t17 -7t17 7t7 17q0 97 48 179.5t130 130.5t178 48h2.5h2.5q104 1 177 75.5t73 178.5t-74 178t-179 74zM619 372q-85 0 -145 60t-60 145t60 145t145 60t145 -60
t60 -145t-60 -145t-145 -60zM339 342q-116 0 -199 -88t-83 -212q0 -10 -7 -17t-17 -7t-17 7t-7 17q0 113 63 204t162 126q-46 29 -74 79t-28 109q0 90 60.5 154.5t146.5 64.5q10 0 17 -7t7 -17t-7 -17t-17 -7q-66 0 -112.5 -50t-46.5 -120.5t46.5 -120t112.5 -49.5
q10 0 17 -7t7 -17q0 -11 -7 -18t-17 -7zM987 97h-131v-130q0 -11 -8 -18.5t-18.5 -7.5t-18.5 7.5t-8 18.5v130h-131q-10 0 -18 8t-8 18.5t8 18.5t18 8h131v130q0 10 8 18t18.5 8t18.5 -8t8 -18v-130h131q10 0 18 -8t8 -18.5t-8 -18.5t-18 -8z" />
    <glyph glyph-name="chuangjiandingdan" unicode="&#xe60a;" 
d="M904 125v509l-163 151h-68l-57 53h-496v-820h100v-88h684v124q0 7 -5.5 12.5t-12.5 5.5t-12.5 -5.5t-5.5 -12.5v-18v0v-71h-612v375q0 7 -5.5 12t-12.5 5t-12.5 -5t-5.5 -12v-286h-64v749h446l19 -18h-401v-377q0 -7 5.5 -12.5t12.5 -5.5t12.5 5.5t5.5 12.5v342h403l3 -3
l3 3h62l6 -6v-118h127l8 -8v-493q0 -7 5.5 -12.5t12.5 -5.5t12.5 5.5t5.5 12.5zM757 649v73l78 -73h-78zM760 294q7 0 12.5 5.5t5.5 12.5t-5.5 12.5t-12.5 5.5h-373q-8 0 -13 -5.5t-5 -12.5t5 -12.5t13 -5.5h373zM691 182q8 0 13 5.5t5 12.5t-5 12.5t-13 5.5h-236
q-7 0 -12 -5.5t-5 -12.5t5 -12.5t12 -5.5h236zM691 406q8 0 13 5t5 12.5t-5 12.5t-13 5h-236q-7 0 -12 -5t-5 -12.5t5 -12.5t12 -5h236z" />
    <glyph glyph-name="yonghuchaxun" unicode="&#xe6c4;" horiz-adv-x="1036" 
d="M817 158q13 19 22.5 48.5t9.5 52.5v0q0 74 -52.5 126.5t-126.5 52.5t-126.5 -52.5t-52.5 -126.5t52.5 -126.5t126.5 -52.5q65 0 116 44l93 -72l28 37zM670 127q-55 0 -94 38.5t-39 93.5t39 94t94 38.5t93.5 -39t38.5 -93.5t-38.5 -93.5t-93.5 -38.5zM489 396v-3
q-18 -25 -29 -52q-102 -18 -172.5 -94.5t-78.5 -179.5h-46q7 107 73.5 192t168.5 118q-47 28 -75 75.5t-28 103.5q0 87 61.5 148.5t148 61.5t148 -61.5t61.5 -148.5q0 -34 -12 -69h-51q17 34 17 69q0 68 -48 116t-115.5 48t-115.5 -48t-48 -116q0 -61 40.5 -106.5
t100.5 -53.5z" />
  </font>
</defs>
</svg>
